<?xml version="1.0" encoding="UTF-8" standalone="no"?>
<svg
   width="50"
   height="50"
   version="1.1"
   viewBox="0 0 13.229 13.229"
   id="svg865"
   sodipodi:docname="coniql.svg"
   inkscape:version="1.2.1 (2ed6d7ae0b, 2022-08-22, custom)"
   xmlns:inkscape="http://www.inkscape.org/namespaces/inkscape"
   xmlns:sodipodi="http://sodipodi.sourceforge.net/DTD/sodipodi-0.dtd"
   xmlns="http://www.w3.org/2000/svg"
   xmlns:svg="http://www.w3.org/2000/svg">
  <sodipodi:namedview
     id="namedview867"
     pagecolor="#ffffff"
     bordercolor="#666666"
     borderopacity="1.0"
     inkscape:pageshadow="2"
     inkscape:pageopacity="0.0"
     inkscape:pagecheckerboard="0"
     showgrid="true"
     inkscape:zoom="1.4177491"
     inkscape:cx="-394.99231"
     inkscape:cy="-21.512974"
     inkscape:window-width="3368"
     inkscape:window-height="1376"
     inkscape:window-x="72"
     inkscape:window-y="27"
     inkscape:window-maximized="1"
     inkscape:current-layer="path10621-9"
     inkscape:snap-object-midpoints="false"
     inkscape:snap-smooth-nodes="true"
     inkscape:showpageshadow="2"
     inkscape:deskcolor="#d1d1d1">
    <inkscape:grid
       type="xygrid"
       id="grid4604" />
  </sodipodi:namedview>
  <defs
     id="defs833" />
  <path
     sodipodi:type="star"
     style="fill:#8e0060;fill-opacity:1;stroke:none;stroke-width:1.77483;stroke-linecap:square;stroke-linejoin:miter;stroke-miterlimit:4;stroke-dasharray:none;stroke-opacity:1"
     id="path9730"
     inkscape:flatsided="true"
     sodipodi:sides="3"
     sodipodi:cx="25"
     sodipodi:cy="30"
     sodipodi:r1="21"
     sodipodi:r2="11"
     sodipodi:arg1="-1.5707963"
     sodipodi:arg2="-0.52359881"
     inkscape:rounded="0.2"
     inkscape:randomized="0"
     d="m 25.000001,9 c 7.274613,2e-7 21.823839,25.200001 18.186532,31.5 -3.637307,6.3 -32.73576,6.3 -36.3730668,0 C 3.1761597,34.199999 17.725387,8.9999998 25.000001,9 Z"
     transform="matrix(-0.26458,0,0,-0.3359746,13.120862,15.723611)"
     inkscape:transform-center-y="-1.0163232" />
  <path
     sodipodi:type="star"
     style="fill:#e10098;fill-opacity:1;stroke:none;stroke-width:1.86059;stroke-linecap:square;stroke-linejoin:miter;stroke-miterlimit:4;stroke-dasharray:none;stroke-opacity:1"
     id="path9986"
     inkscape:flatsided="true"
     sodipodi:sides="3"
     sodipodi:cx="25"
     sodipodi:cy="30"
     sodipodi:r1="21"
     sodipodi:r2="11"
     sodipodi:arg1="-1.5707963"
     sodipodi:arg2="-0.52359881"
     inkscape:rounded="0.2"
     inkscape:randomized="0"
     d="m 25.000001,9 c 7.274613,2e-7 21.823839,25.200001 18.186532,31.5 -3.637307,6.3 -32.73576,6.3 -36.3730668,0 C 3.1761597,34.199999 17.725387,8.9999998 25.000001,9 Z"
     transform="matrix(-0.23302105,0,0,-0.3359746,12.327323,15.723611)"
     inkscape:transform-center-y="-1.0163232" />
  <circle
     id="path1354"
     style="fill:#fcfcff;stroke:#ffffff;stroke-width:0.26458"
     cx="-11.43938"
     cy="-1.0770482"
     r="0.0065398291"
     transform="scale(-1)" />
  <circle
     id="path1356"
     style="fill:#fcfcff;stroke:#ffffff;stroke-width:0.26458"
     cx="-11.43938"
     cy="-1.0770482"
     r="0.0065398291"
     transform="scale(-1)" />
  <g
     id="path10621"
     transform="rotate(180,6.560431,6.6145)">
    <path
       style="color:#000000;fill:#ffc4ec;-inkscape-stroke:none"
       d="M 10.542969,9.0332031 C 9.897451,9.4159569 8.3940579,10.21694 7.0742187,10.591797 5.7536261,10.955387 4.5372393,11.21875 3.2890625,11.21875 c -0.2835606,0 -0.6132966,-0.0561 -0.8945312,-0.123047 l -0.1230469,0.513672 c 0.3049229,0.07259 0.6664307,0.138672 1.0175781,0.138672 1.3220262,0 2.5879101,-0.276184 3.9257812,-0.644531 l 0.00195,-0.002 C 8.6249561,10.702165 10.137317,9.8886246 10.8125,9.4882813 Z"
       id="path3868" />
    <g
       id="g3858">
      <g
         id="path3860">
        <path
           style="color:#000000;fill:#ffc4ec;fill-rule:evenodd;stroke-width:0.0992175;stroke-linejoin:round;-inkscape-stroke:none"
           d="M 9.4746505,9.2291816 11.291861,8.8931794 10.125243,10.326411 C 10.171533,9.8611843 9.907396,9.4188447 9.4746505,9.2291816 Z"
           id="path3864" />
        <path
           style="color:#000000;fill:#ffc4ec;fill-rule:evenodd;stroke-linejoin:round;-inkscape-stroke:none"
           d="M 11.283203,8.84375 9.4648438,9.1796875 a 0.04961371,0.04961371 0 0 0 -0.00977,0.095703 C 9.8686431,9.4566491 10.12031,9.878624 10.076168,10.322266 a 0.04961371,0.04961371 0 0 0 0.08789,0.03516 l 1.16602,-1.4335979 A 0.04961371,0.04961371 0 0 0 11.283203,8.84375 Z M 11.167969,8.9648438 10.125,10.248047 C 10.126638,9.8355916 9.907541,9.4664485 9.5429688,9.265625 Z"
           id="path3866" />
      </g>
    </g>
  </g>
  <g
     id="path10621-1"
     transform="rotate(180,6.560431,6.6145)">
    <path
       style="color:#000000;fill:#ffc4ec;-inkscape-stroke:none"
       d="M 9.5859375,5.8652344 C 9.0183989,6.2466206 7.6902036,7.0480598 6.5351562,7.4199219 5.3718087,7.7829248 4.3049556,8.0429688 3.2128906,8.0429688 c -0.2802728,0 -0.6210024,-0.07547 -0.8886718,-0.1542969 L 2.1757813,8.3964844 c 0.2938411,0.086535 0.6680156,0.1757812 1.0371093,0.1757812 1.175761,0 2.2981133,-0.2775504 3.4804688,-0.6464844 h 0.00195 v -0.00195 C 7.9472708,7.5213887 9.2831246,6.7063656 9.8808594,6.3046875 Z"
       id="path3920" />
    <g
       id="g3910">
      <g
         id="path3912">
        <path
           style="color:#000000;fill:#ffc4ec;fill-rule:evenodd;stroke-width:0.0992175;stroke-linejoin:round;-inkscape-stroke:none"
           d="M 8.5298832,6.1221751 10.325232,5.6841388 9.2413694,7.1809336 C 9.2613276,6.7138358 8.9726441,6.2871102 8.5298832,6.1221751 Z"
           id="path3916" />
        <path
           style="color:#000000;fill:#ffc4ec;fill-rule:evenodd;stroke-linejoin:round;-inkscape-stroke:none"
           d="m 10.3125,5.6367187 -1.7949219,0.4375 a 0.04961371,0.04961371 0 0 0 -0.00586,0.09375 c 0.4231408,0.1576264 0.6987196,0.5662931 0.6796875,1.0117188 a 0.04961371,0.04961371 0 0 0 0.089844,0.03125 L 10.365234,5.7128906 A 0.04961371,0.04961371 0 0 0 10.3125,5.6367187 Z M 10.205078,5.765625 9.2363281,7.1035156 C 9.2147516,6.6917142 8.974748,6.3362753 8.5996094,6.15625 Z"
           id="path3918" />
      </g>
    </g>
  </g>
  <g
     id="path10621-9"
     transform="rotate(180,6.560431,6.6145)">
    <path
       style="color:#000000;fill:#ffc4ec;-inkscape-stroke:none"
       d="M 8.28125,3.2148438 C 7.8720158,3.4668945 6.9066671,3.9994627 6.0761719,4.2441406 5.2327442,4.4852734 4.4635447,4.65625 3.6777344,4.65625 3.5916984,4.65625 3.4948026,4.64777 3.3984375,4.632813 L 3.3164063,5.15625 c 0.1165142,0.018087 0.2394589,0.029297 0.3613281,0.029297 0.8631418,0 1.6848656,-0.1870697 2.546875,-0.4335938 h 0.00195 C 7.1473299,4.4806795 8.1199126,3.9342498 8.5585938,3.6640625 Z"
       id="path3991" />
    <g
       id="g3981">
      <g
         id="path3983">
        <path
           style="color:#000000;fill:#ffc4ec;fill-rule:evenodd;stroke-width:0.0992175;stroke-linejoin:round;-inkscape-stroke:none"
           d="M 7.2159179,3.4286624 9.0272193,3.0621402 7.8848745,4.5147929 C 7.9233332,4.0488534 7.6517925,3.6110195 7.2159179,3.4286624 Z"
           id="path3987" />
        <path
           style="color:#000000;fill:#ffc4ec;fill-rule:evenodd;stroke-linejoin:round;-inkscape-stroke:none"
           d="M 9.0175781,3.0136719 7.2070312,3.3808594 a 0.04961371,0.04961371 0 0 0 -0.00977,0.09375 c 0.4165598,0.1742763 0.6753462,0.590835 0.6386719,1.0351562 a 0.04961371,0.04961371 0 0 0 0.087891,0.035156 L 9.0664063,3.09375 a 0.04961371,0.04961371 0 0 0 -0.048828,-0.080078 z m -0.1132812,0.125 L 7.8828125,4.4375 C 7.8777844,4.0251572 7.6527107,3.6597728 7.2851562,3.4648438 Z"
           id="path3989" />
      </g>
    </g>
  </g>
  <path
     id="path1656"
     style="fill:#ffc4ec;fill-opacity:1;stroke-width:0.520596;stroke-linecap:square"
     inkscape:transform-center-y="-1.0163232"
     d="m 6.7998804,12.69984 c 1.8108128,0 5.4327216,-8.4665597 4.5273156,-10.5832 C 10.863067,1.0316109 8.733429,0.50436065 6.6458867,0.53174389 8.5038714,0.55777697 10.326552,1.0850272 10.739642,2.11664 11.563846,4.1749301 8.3807944,12.236703 6.6458867,12.679686 c 0.052641,0.01261 0.1039812,0.02015 0.1539937,0.02015 z M 2.168697,2.4954236 c 0.00302,-0.019314 0.0064,-0.038094 0.00982,-0.056843 -0.00358,0.018539 -0.00665,0.037755 -0.00982,0.056843 z" />
</svg>
